<?xml version="1.0" encoding="UTF-8" standalone="no"?>
<!-- Created with Inkscape (http://www.inkscape.org/) -->

<svg
   width="210mm"
   height="297mm"
   viewBox="0 0 210 297"
   version="1.1"
   id="svg5"
   xml:space="preserve"
   inkscape:version="1.2 (dc2aedaf03, 2022-05-15)"
   sodipodi:docname="cat.svg"
   xmlns:inkscape="http://www.inkscape.org/namespaces/inkscape"
   xmlns:sodipodi="http://sodipodi.sourceforge.net/DTD/sodipodi-0.dtd"
   xmlns="http://www.w3.org/2000/svg"
   xmlns:svg="http://www.w3.org/2000/svg"><sodipodi:namedview
     id="namedview7"
     pagecolor="#ffffff"
     bordercolor="#000000"
     borderopacity="0.25"
     inkscape:showpageshadow="2"
     inkscape:pageopacity="0.0"
     inkscape:pagecheckerboard="0"
     inkscape:deskcolor="#d1d1d1"
     inkscape:document-units="mm"
     showgrid="false"
     inkscape:zoom="0.65134574"
     inkscape:cx="228.75716"
     inkscape:cy="693.94789"
     inkscape:window-width="1350"
     inkscape:window-height="681"
     inkscape:window-x="0"
     inkscape:window-y="0"
     inkscape:window-maximized="0"
     inkscape:current-layer="layer1" /><defs
     id="defs2" /><g
     inkscape:label="Capa 1"
     inkscape:groupmode="layer"
     id="layer1"><ellipse
       style="fill:none;stroke-width:0.428001;stroke-linecap:round;stroke-linejoin:round"
       id="path363"
       cx="76.672195"
       cy="148.46986"
       rx="14.115807"
       ry="17.873253" /><path
       id="path419"
       style="fill:#1a1a1a;stroke-width:0.428001;stroke-linecap:round;stroke-linejoin:round"
       d="M 116.40633 120.804 C 114.10272 120.7915 111.58079 122.10986 111.58079 122.10986 C 111.58079 122.10986 104.28973 128.57863 99.419255 132.31699 A 31.582848 24.981932 0 0 0 90.112329 131.20594 A 31.582848 24.981932 0 0 0 80.190971 132.48752 C 75.324976 128.72416 68.27852 122.47211 68.27852 122.47211 C 68.27852 122.47211 59.342083 117.80098 59.748291 126.12822 C 60.043461 132.17902 60.652635 141.75399 60.967855 146.60345 A 31.582848 24.981932 0 0 0 58.641899 154.22263 C 57.221447 153.78305 55.08287 153.43917 52.328072 153.90999 L 58.588672 154.81949 A 31.582848 24.981932 0 0 0 58.529244 156.18788 A 31.582848 24.981932 0 0 0 58.540613 156.44626 C 57.064134 156.31103 54.936221 156.41656 52.384916 157.40435 L 58.568001 157.05811 A 31.582848 24.981932 0 0 0 58.799512 159.37115 C 57.948314 159.73638 57.02676 160.25472 56.055493 160.98139 L 58.970561 160.22485 A 31.582848 24.981932 0 0 0 61.055705 165.93664 L 119.18807 165.93664 A 31.582848 24.981932 0 0 0 121.23033 160.36954 L 123.58936 160.98139 C 122.82164 160.40701 122.0849 159.96367 121.38949 159.6223 A 31.582848 24.981932 0 0 0 121.65666 157.09067 L 127.25942 157.40435 C 125.02582 156.53956 123.11719 156.35135 121.6856 156.40854 A 31.582848 24.981932 0 0 0 121.6949 156.18788 A 31.582848 24.981932 0 0 0 121.6303 154.73577 L 127.31678 153.90999 C 124.90555 153.49789 122.96607 153.70993 121.56726 154.06398 A 31.582848 24.981932 0 0 0 118.91057 145.9358 C 119.23035 141.00874 119.82094 131.71284 120.11101 125.76545 C 120.30142 121.86202 118.43891 120.81506 116.40633 120.804 z M 75.907511 140.18783 C 83.280301 140.10515 85.490671 149.24045 84.899727 151.31324 C 80.940512 165.20073 55.043291 158.96637 68.448535 142.78302 C 71.374194 140.95713 73.84313 140.21097 75.907511 140.18783 z M 104.14455 140.28963 C 104.20152 140.28916 104.25903 140.28898 104.31663 140.28963 C 106.38101 140.31278 108.8505 141.05842 111.77612 142.8843 C 125.18136 159.06766 99.283621 165.302 95.324414 151.41453 C 94.738091 149.35792 96.909258 140.34951 104.14455 140.28963 z M 76.369499 146.23552 A 1.0155257 3.8589976 0 0 0 75.354057 150.09471 A 1.0155257 3.8589976 0 0 0 76.369499 153.95391 A 1.0155257 3.8589976 0 0 0 77.384941 150.09471 A 1.0155257 3.8589976 0 0 0 76.369499 146.23552 z M 103.85516 146.33732 A 1.0155257 3.8589976 0 0 0 102.8392 150.196 A 1.0155257 3.8589976 0 0 0 103.85516 154.0552 A 1.0155257 3.8589976 0 0 0 104.8706 150.196 A 1.0155257 3.8589976 0 0 0 103.85516 146.33732 z M 90.371228 155.61272 C 91.396234 155.63321 92.356372 155.83829 92.473942 156.18375 C 92.728834 156.9327 91.247999 158.3348 90.283895 158.3738 C 89.216325 158.41704 87.13557 156.91608 87.87784 156.14757 C 88.255973 155.75611 89.346223 155.59224 90.371228 155.61272 z M 44.543534 158.61047 C 42.150808 158.62899 39.509483 159.71528 34.696073 162.69084 C 26.797145 167.57382 37.999231 166.99963 37.999231 166.99963 C 41.544386 169.4524 44.506856 169.38189 46.90308 166.85597 C 50.849306 167.83411 55.18129 165.82488 53.078931 163.26549 C 53.078931 163.26549 50.980136 160.25357 49.344792 159.67501 C 47.508881 159.0255 46.077333 158.5986 44.543534 158.61047 z M 135.10131 158.61047 C 133.56752 158.5986 132.13597 159.0255 130.30006 159.67501 C 128.66471 160.25357 126.56592 163.26549 126.56592 163.26549 C 124.46356 165.82488 128.79554 167.83411 132.74177 166.85597 C 135.13799 169.38189 138.10098 169.4524 141.64613 166.99963 C 141.64613 166.99963 152.84822 167.57382 144.94929 162.69084 C 140.13589 159.71528 137.49404 158.62899 135.10131 158.61047 z " /><g
       aria-label="TASKS"
       transform="scale(0.96457604,1.0367249)"
       id="text2478"
       style="font-size:23.5197px;font-family:Brusher;-inkscape-font-specification:Brusher;text-align:center;letter-spacing:0.629439px;text-anchor:middle;opacity:1;stroke-width:3.17124;stroke-linecap:round;stroke-linejoin:round;fill:#1a1a1a"><path
         d="m 79.966226,162.93357 q 0.211677,1.27007 -0.04704,2.21085 -0.117598,0.39984 -0.352795,0.79967 -0.211677,0.37632 -0.611512,0.65856 -0.376315,0.28223 -0.964308,0.42335 -0.587992,0.14112 -1.387662,0.0706 -0.211677,-0.0235 -0.423355,-0.0235 -0.188157,-0.0235 -0.399835,-0.047 -0.09408,1.17599 -0.188157,2.58717 -0.07056,1.38766 -0.141118,2.82236 -0.04704,1.4347 -0.09408,2.79885 -0.02352,1.36414 0.02352,2.46956 0.04704,1.10543 0.141119,1.83454 0.117598,0.70559 0.352795,0.84671 -0.117598,0.30576 -0.423354,0.56447 -0.305757,0.25872 -0.705591,0.44688 -0.376316,0.21167 -0.79967,0.32927 -0.399835,0.1176 -0.705591,0.1176 -0.77615,0.0235 -1.246544,-0.70559 -0.446875,-0.70559 -0.682072,-1.9051 -0.211677,-1.22302 -0.235196,-2.79884 -0.02352,-1.57582 0.04704,-3.26924 0.09408,-1.69342 0.235197,-3.38683 0.141118,-1.69342 0.258717,-3.12812 -1.317104,-0.0941 -2.163813,0 -0.846709,0.0705 -1.105426,0.47039 -0.305756,-0.0941 -0.564472,-0.39984 -0.258717,-0.32927 -0.470394,-0.70559 -0.188158,-0.39983 -0.305756,-0.79967 -0.117599,-0.42335 -0.117599,-0.72911 -0.02352,-1.03486 0.75263,-1.50526 0.79967,-0.49391 2.046214,-0.61151 1.270064,-0.1176 2.798844,0.0235 1.552301,0.1176 3.010522,0.30576 1.458221,0.18815 2.657726,0.30575 1.199505,0.0941 1.811017,-0.0706 z"
         id="path2601"
         style="fill:#1a1a1a" /><path
         d="m 87.392875,166.17929 q -0.04704,1.15247 -0.09408,2.56365 -0.02352,1.38766 -0.04704,2.84588 -0.02352,1.4347 -0.02352,2.82237 0.02352,1.38766 0.09408,2.49308 0.09408,1.10543 0.235197,1.85806 0.164638,0.72911 0.423355,0.87023 -0.09408,0.32927 -0.399835,0.63503 -0.305756,0.28224 -0.705591,0.49391 -0.376315,0.2352 -0.77615,0.37632 -0.399835,0.14112 -0.705591,0.16464 -0.752631,0.047 -1.223025,-0.54096 -0.446874,-0.58799 -0.682071,-1.62285 -0.211677,-1.05839 -0.235197,-2.44605 -0.02352,-1.38767 0.04704,-2.91645 -0.188158,-0.0235 -0.352796,-0.0235 -0.141118,-0.0235 -0.329276,-0.0235 -0.188157,-0.0235 -0.399835,-0.0235 -0.211677,-0.0235 -0.399834,-0.047 -0.188158,-0.0235 -0.399835,-0.0235 -0.188158,-0.0235 -0.376316,-0.0235 -0.09408,-0.0235 -0.188157,-0.0235 -0.09408,0 -0.188158,-0.0235 -0.09408,0 -0.188157,0 -0.07056,-0.0235 -0.164638,-0.0235 -0.188158,-0.0235 -0.352796,-0.0235 -0.141118,-0.0235 -0.305756,-0.047 -0.04704,0 -0.07056,0 -0.02352,-0.0235 -0.07056,-0.0235 -0.188158,1.34062 -0.329276,2.61068 -0.141118,1.27007 -0.282236,2.32845 -0.117599,1.05839 -0.258717,1.81102 -0.117598,0.75263 -0.258717,1.05839 -0.117598,0.35279 -0.423354,0.63503 -0.305756,0.30576 -0.682071,0.51743 -0.399835,0.2352 -0.79967,0.37632 -0.423355,0.14112 -0.729111,0.14112 0.635032,-3.97483 1.317103,-6.96183 0.658552,-2.98701 1.340623,-5.17434 0.682071,-2.18733 1.364143,-3.64555 0.682071,-1.45822 1.317103,-2.37549 0.658551,-0.91727 1.246544,-1.36414 0.611512,-0.4704 1.128945,-0.63504 0.517434,-0.16463 0.940788,-0.14111 0.423355,0 0.729111,0.047 0.117599,0 0.305756,0.047 h 0.04704 q 0.329275,0.0705 0.658551,0.25871 0.329276,0.18816 0.587993,0.54096 0.282236,0.35279 0.446874,0.89374 0.188157,0.54096 0.211677,1.34063 v 0.0941 0.047 0.0235 z m -4.68042,6.49144 q 0.164638,0.0235 0.305756,0.047 0.164638,0 0.329276,0 0.04704,-0.54096 0.07056,-1.10543 0.04704,-0.56447 0.09408,-1.10542 0.02352,-0.42336 0.09408,-1.03487 0.07056,-0.63503 0.09408,-1.29358 0.04704,-0.65856 0.04704,-1.31711 0.02352,-0.65855 -0.04704,-1.17598 -0.07056,-0.51744 -0.235197,-0.82319 -0.164637,-0.30576 -0.446874,-0.30576 -0.682071,0.0235 -1.199504,0.68207 -0.517434,0.65855 -0.917269,1.74046 -0.399835,1.08191 -0.705591,2.46957 -0.305756,1.38766 -0.517433,2.8694 0.07056,0 0.117598,0.0235 0.141119,0.0235 0.305756,0.047 0.164638,0 0.329276,0.0235 0.09408,0.0235 0.164638,0.0235 0.09408,0 0.188158,0.0235 0.09408,0.0235 0.164638,0.0235 0.09408,0 0.211677,0.0235 0.188158,0.0235 0.376315,0.047 0.188158,0 0.376315,0.0235 0.211678,0.047 0.399835,0.0706 0.211677,0 0.399835,0.0235 z"
         id="path2603"
         style="fill:#1a1a1a" /><path
         d="m 97.688923,178.48009 q 0.09408,1.12895 -0.423355,1.83454 -0.493913,0.68207 -1.340623,1.05839 -0.823189,0.39983 -1.858056,0.56447 -1.011347,0.16464 -1.975655,0.21168 -0.940788,0.047 -1.693418,0.0706 -0.729111,0.0235 -0.987827,0.14111 -0.352796,-1.05838 -0.329276,-1.92861 0,-0.37632 0.09408,-0.72911 0.09408,-0.3528 0.305756,-0.63503 0.235197,-0.28224 0.611512,-0.4704 0.376315,-0.18816 0.964308,-0.23519 1.50526,-0.0706 2.469568,-0.16464 0.964308,-0.1176 1.458221,-0.28224 0.517434,-0.16464 0.611513,-0.39983 0.117598,-0.25872 -0.07056,-0.61152 -0.329276,-0.63503 -0.940788,-1.17598 -0.611513,-0.54095 -1.317104,-1.08191 -0.705591,-0.54095 -1.434701,-1.10542 -0.705591,-0.56448 -1.246544,-1.22303 -0.540953,-0.68207 -0.82319,-1.45822 -0.282236,-0.79967 -0.141118,-1.7875 0.164638,-1.01134 0.823189,-2.23437 0.682072,-1.24654 2.069734,-2.79884 0.141118,-0.14112 0.376315,-0.37632 0.235197,-0.23519 0.540953,-0.49391 0.517434,-0.39984 1.175985,-0.68207 0.682072,-0.30576 1.387662,-0.0706 1.128946,0.35279 1.411182,1.22302 0.305757,0.87023 0.02352,2.06974 -0.141118,0.58799 -0.282236,1.29358 -0.117599,0.68207 -0.211678,1.34062 -0.09408,0.65856 -0.141118,1.22303 -0.04704,0.54095 -0.04704,0.82319 h -0.964308 q 0.04704,-0.70559 0.117599,-1.4347 0.04704,-0.61152 0.117598,-1.29359 0.07056,-0.70559 0.141118,-1.3171 0.02352,-0.18816 -0.07056,-0.18816 -0.09408,-0.0235 -0.258716,0.0941 -0.164638,0.1176 -0.399835,0.32928 -0.235197,0.21167 -0.470394,0.44687 -1.481741,1.48174 -1.881576,2.65773 -0.376315,1.15246 -0.09408,2.11677 0.282236,0.96431 1.011347,1.7875 0.75263,0.82319 1.5523,1.59934 0.79967,0.77615 1.434702,1.57582 0.635032,0.79967 0.705591,1.71693 z"
         id="path2605"
         style="fill:#1a1a1a" /><path
         d="m 111.3953,174.45823 q -0.0235,0.0235 -0.0235,0.047 -0.0235,0.0235 -0.0235,0.047 0,0.0235 -0.0235,0.0706 -0.047,0.0941 -0.0941,0.21168 -0.047,0.0941 -0.1176,0.25872 -0.0706,0.14112 -0.16464,0.32927 -0.0706,0.16464 -0.18816,0.3528 -0.11759,0.21168 -0.23519,0.42335 -0.1176,0.21168 -0.25872,0.4704 -0.28224,0.51743 -0.65855,1.01134 -0.0941,0.14112 -0.18816,0.28224 -0.0941,0.1176 -0.21168,0.25872 -0.11759,0.14112 -0.23519,0.28223 -0.1176,0.1176 -0.25872,0.25872 -0.21168,0.2352 -0.61151,0.51743 -0.0941,0.047 -0.18816,0.1176 -0.0706,0.047 -0.18816,0.0941 -0.1176,0.047 -0.23519,0.0941 -0.1176,0.0235 -0.2352,0.0706 -0.14112,0.0235 -0.28224,0.047 -0.14112,0 -0.28223,-0.0235 -0.1176,-0.0235 -0.30576,-0.0706 l -0.0706,-0.0235 -0.0706,-0.0235 q -0.0235,-0.0235 -0.047,-0.0235 0,0 -0.0235,-0.0235 l -0.047,-0.0235 h -0.0235 v -0.0235 h -0.047 q -0.047,-0.047 -0.047,-0.047 -0.0235,0 -0.047,0 0,-0.0235 -0.0235,-0.0235 -0.047,-0.047 -0.047,-0.047 -0.16464,-0.0706 -0.21168,-0.16464 -0.1176,-0.0705 -0.18816,-0.14111 -0.0706,-0.0941 -0.16464,-0.18816 -0.28223,-0.3528 -0.49391,-0.70559 -0.1176,-0.18816 -0.21168,-0.32928 -0.0941,-0.16464 -0.18815,-0.35279 -0.18816,-0.3528 -0.32928,-0.70559 -0.14112,-0.3528 -0.25872,-0.68208 -0.14112,-0.32927 -0.25871,-0.65855 -0.0941,-0.32927 -0.21168,-0.63503 -0.0706,-0.2352 -0.14112,-0.44687 -0.047,-0.21168 -0.1176,-0.39984 -0.0235,1.17599 -0.0235,2.23437 0,1.03487 0.047,1.85806 0.0706,0.79967 0.16464,1.34062 0.1176,0.51744 0.30576,0.63503 -0.1176,0.30576 -0.42336,0.56448 -0.30575,0.28223 -0.70559,0.47039 -0.37631,0.18816 -0.79967,0.30576 -0.39983,0.1176 -0.70559,0.1176 -0.77615,0.0235 -1.246544,-0.7056 -0.446875,-0.70559 -0.682072,-1.90509 -0.211677,-1.19951 -0.235197,-2.77533 -0.02352,-1.57582 0.04704,-3.26923 0.09408,-1.69342 0.235197,-3.36332 0.141118,-1.69342 0.258717,-3.12812 0.117598,-1.4347 0.141118,-2.49309 0.04704,-1.0819 -0.07056,-1.52878 1.27006,-0.21168 2.21085,0.047 0.39984,0.1176 0.77615,0.3528 0.37632,0.21167 0.65855,0.61151 0.28224,0.37631 0.42336,0.96431 0.16464,0.56447 0.0941,1.36414 -0.047,0.70559 -0.1176,1.57582 -0.047,0.87023 -0.1176,1.83453 0.47039,-0.72911 1.1995,-1.36414 0.75263,-0.63503 1.48175,-1.15246 0.72911,-0.54096 1.29358,-0.91727 0.58799,-0.39984 0.72911,-0.63503 0.89375,0.68207 1.34062,1.36414 0.39984,0.61151 0.39984,1.3171 0.0235,0.68207 -0.87023,1.36414 -0.98783,0.72912 -1.64638,1.19951 -0.63503,0.44687 -1.03487,0.79967 -0.37631,0.32927 -0.54095,0.65855 -0.16464,0.30576 -0.16464,0.75263 0,0.18816 0,0.37632 0.0235,0.16463 0.047,0.35279 v 0.1176 0.1176 -0.0235 q 0.0235,0.2352 0.0235,0.44687 0.0235,0.21168 0.0706,0.4704 0.047,0.30575 0.0706,0.61151 0.047,0.30576 0.0941,0.63503 0.047,0.32928 0.0941,0.63503 0.0706,0.30576 0.16463,0.63504 0.047,0.16463 0.0941,0.32927 0.047,0.14112 0.0941,0.30576 0.047,0.14112 0.0941,0.28223 0.0706,0.14112 0.14112,0.25872 0.0941,0.14112 0.1176,0.21168 l 0.0706,0.0706 q 0,0.0235 0.0235,0.0235 v 0.0235 h 0.0235 v 0.0235 q 0,0 0,0 l 0.047,0.0235 h 0.0235 v 0.0235 q 0.047,0 0.0706,0.0235 h 0.14112 q 0.18816,0 0.44688,-0.14111 0.11759,-0.0706 0.23519,-0.14112 0.14112,-0.0706 0.25872,-0.18816 0.1176,-0.0941 0.21168,-0.18816 0.1176,-0.0941 0.23519,-0.21167 0.1176,-0.1176 0.21168,-0.21168 0.0941,-0.1176 0.21168,-0.2352 0.18816,-0.2352 0.35279,-0.44687 0.18816,-0.2352 0.3528,-0.44688 0.16464,-0.21167 0.30576,-0.39983 0.14111,-0.21168 0.25871,-0.39984 0.1176,-0.18815 0.21168,-0.32927 0.0941,-0.16464 0.18816,-0.30576 0.0706,-0.1176 0.1176,-0.21168 0.0706,-0.11759 0.11759,-0.21167 0.0235,-0.047 0.0706,-0.0941 0.0235,-0.0235 0.0235,-0.047 z"
         id="path2607"
         style="fill:#1a1a1a" /><path
         d="m 119.33935,178.48009 q 0.0941,1.12895 -0.42335,1.83454 -0.49392,0.68207 -1.34063,1.05839 -0.82319,0.39983 -1.85805,0.56447 -1.01135,0.16464 -1.97566,0.21168 -0.94078,0.047 -1.69342,0.0706 -0.72911,0.0235 -0.98782,0.14111 -0.3528,-1.05838 -0.32928,-1.92861 0,-0.37632 0.0941,-0.72911 0.0941,-0.3528 0.30576,-0.63503 0.23519,-0.28224 0.61151,-0.4704 0.37631,-0.18816 0.96431,-0.23519 1.50526,-0.0706 2.46956,-0.16464 0.96431,-0.1176 1.45823,-0.28224 0.51743,-0.16464 0.61151,-0.39983 0.1176,-0.25872 -0.0706,-0.61152 -0.32928,-0.63503 -0.94079,-1.17598 -0.61151,-0.54095 -1.3171,-1.08191 -0.70559,-0.54095 -1.4347,-1.10542 -0.70559,-0.56448 -1.24655,-1.22303 -0.54095,-0.68207 -0.82319,-1.45822 -0.28223,-0.79967 -0.14112,-1.7875 0.16464,-1.01134 0.82319,-2.23437 0.68208,-1.24654 2.06974,-2.79884 0.14112,-0.14112 0.37631,-0.37632 0.2352,-0.23519 0.54096,-0.49391 0.51743,-0.39984 1.17598,-0.68207 0.68207,-0.30576 1.38766,-0.0706 1.12895,0.35279 1.41119,1.22302 0.30575,0.87023 0.0235,2.06974 -0.14111,0.58799 -0.28223,1.29358 -0.1176,0.68207 -0.21168,1.34062 -0.0941,0.65856 -0.14112,1.22303 -0.047,0.54095 -0.047,0.82319 h -0.9643 q 0.047,-0.70559 0.11759,-1.4347 0.047,-0.61152 0.1176,-1.29359 0.0706,-0.70559 0.14112,-1.3171 0.0235,-0.18816 -0.0706,-0.18816 -0.0941,-0.0235 -0.25871,0.0941 -0.16464,0.1176 -0.39984,0.32928 -0.2352,0.21167 -0.47039,0.44687 -1.48174,1.48174 -1.88158,2.65773 -0.37631,1.15246 -0.0941,2.11677 0.28224,0.96431 1.01135,1.7875 0.75263,0.82319 1.5523,1.59934 0.79967,0.77615 1.4347,1.57582 0.63503,0.79967 0.70559,1.71693 z"
         id="path2609"
         style="fill:#1a1a1a" /></g></g></svg>
